<svg viewBox="0 0 24 24" fill="#a855f7" xmlns="http://www.w3.org/2000/svg">
  <title>LeetCode</title>
  <path d="M16.102 17.93l-2.697 2.607c-.466.451-1.211.451-1.677 0l-4.51-4.358A6.177 6.177 0 0 1 5.37 11.77c0-1.618.638-3.14 1.798-4.26l4.51-4.359c.466-.45 1.211-.45 1.677 0l2.76 2.667c.466.45 1.211.45 1.677 0a1.144 1.144 0 0 0 0-1.62L15.032.531c-1.398-1.35-3.664-1.35-5.063 0L5.46 4.89c-2.33 2.25-3.613 5.293-3.613 8.57 0 3.277 1.283 6.32 3.613 8.57l4.51 4.357c1.398 1.35 3.664 1.35 5.063 0l3.75-3.623a1.144 1.144 0 0 0 0-1.62c-.466-.45-1.211-.45-1.677 0zm4.278-8.4l-1.883 1.82c-.466.45-1.211.45-1.677 0a1.144 1.144 0 0 0 0-1.62l1.883-1.82a1.144 1.144 0 0 0 0-1.62l-2.697-2.607a1.144 1.144 0 0 0-1.677 0L10.05 8.04c-.466.45-.466 1.17 0 1.62l4.51 4.358c1.398 1.35 3.664 1.35 5.063 0l.757-.732a1.144 1.144 0 0 0 0-1.62c-.466-.45-1.211-.45-1.677 0z" />
</svg>
